<?xml version="1.0" encoding="UTF-8" standalone="no"?>
<svg
   xmlns:dc="http://purl.org/dc/elements/1.1/"
   xmlns:cc="http://creativecommons.org/ns#"
   xmlns:rdf="http://www.w3.org/1999/02/22-rdf-syntax-ns#"
   xmlns:svg="http://www.w3.org/2000/svg"
   xmlns="http://www.w3.org/2000/svg"
   xmlns:xlink="http://www.w3.org/1999/xlink"
   xmlns:sodipodi="http://sodipodi.sourceforge.net/DTD/sodipodi-0.dtd"
   xmlns:inkscape="http://www.inkscape.org/namespaces/inkscape"
   viewBox="0 0 200 200"
   x="0px"
   y="0px"
   version="1.1"
   id="svg3743"
   sodipodi:docname="logo.svg"
   inkscape:version="0.92.2 (5c3e80d, 2017-08-06)"
   width="200"
   height="200"
   inkscape:export-filename="S:\cloud\OneDrive\Projects\Ithildir Bot\logo.png"
   inkscape:export-xdpi="96"
   inkscape:export-ydpi="96">
  <metadata
     id="metadata3749">
    <rdf:RDF>
      <cc:Work
         rdf:about="">
        <dc:format>image/svg+xml</dc:format>
        <dc:type
           rdf:resource="http://purl.org/dc/dcmitype/StillImage" />
        <dc:title>Ithildir Bot</dc:title>
      </cc:Work>
    </rdf:RDF>
  </metadata>
  <defs
     id="defs3747">
    <linearGradient
       id="linearGradient4598">
      <stop
         style="stop-color:#ff5e62;stop-opacity:1;"
         offset="0"
         id="stop4594" />
      <stop
         style="stop-color:#ff9966;stop-opacity:1;"
         offset="1"
         id="stop4596" />
    </linearGradient>
    <linearGradient
       inkscape:collect="always"
       xlink:href="#linearGradient4598"
       id="linearGradient4600"
       x1="-0.00085915806"
       y1="33.492867"
       x2="60.000187"
       y2="33.492867"
       gradientUnits="userSpaceOnUse" />
    <linearGradient
       inkscape:collect="always"
       xlink:href="#linearGradient4598"
       id="linearGradient4602"
       gradientUnits="userSpaceOnUse"
       x1="-0.00085915806"
       y1="33.492867"
       x2="60.000187"
       y2="33.492867" />
    <linearGradient
       inkscape:collect="always"
       xlink:href="#linearGradient4598"
       id="linearGradient4604"
       gradientUnits="userSpaceOnUse"
       x1="-0.00085915806"
       y1="33.492867"
       x2="60.000187"
       y2="33.492867" />
    <linearGradient
       inkscape:collect="always"
       xlink:href="#linearGradient4598"
       id="linearGradient4606"
       gradientUnits="userSpaceOnUse"
       x1="-0.00085915806"
       y1="33.492867"
       x2="60.000187"
       y2="33.492867" />
    <linearGradient
       inkscape:collect="always"
       xlink:href="#linearGradient4598"
       id="linearGradient4608"
       gradientUnits="userSpaceOnUse"
       x1="-0.00085915806"
       y1="33.492867"
       x2="60.000187"
       y2="33.492867" />
    <linearGradient
       inkscape:collect="always"
       xlink:href="#linearGradient4598"
       id="linearGradient4610"
       gradientUnits="userSpaceOnUse"
       x1="-0.00085915806"
       y1="33.492867"
       x2="60.000187"
       y2="33.492867" />
  </defs>
  <sodipodi:namedview
     pagecolor="#ffffff"
     bordercolor="#666666"
     borderopacity="1"
     objecttolerance="10"
     gridtolerance="10"
     guidetolerance="10"
     inkscape:pageopacity="0"
     inkscape:pageshadow="2"
     inkscape:window-width="3840"
     inkscape:window-height="2028"
     id="namedview3745"
     showgrid="false"
     inkscape:zoom="2.785"
     inkscape:cx="-66.662757"
     inkscape:cy="-74.790044"
     inkscape:window-x="-16"
     inkscape:window-y="3584"
     inkscape:window-maximized="1"
     inkscape:current-layer="svg3743"
     fit-margin-top="0"
     fit-margin-left="0"
     fit-margin-right="0"
     fit-margin-bottom="0" />
  <title
     id="title3725">Ithildir Bot</title>
  <g
     data-name="Bot 33"
     id="g3737"
     style="fill:url(#linearGradient4600);fill-opacity:1"
     transform="matrix(3.3332752,0,0,3.3332752,0.0028628,-11.640943)">
    <path
       d="m 15,19 a 7,7 0 1 0 7,7 7,7 0 0 0 -7,-7 z m 0,12 a 5,5 0 1 1 5,-5 5,5 0 0 1 -5,5 z"
       id="path3727"
       style="fill:url(#linearGradient4602);fill-opacity:1"
       inkscape:connector-curvature="0" />
    <path
       d="m 45,33 a 7,7 0 1 0 -7,-7 7,7 0 0 0 7,7 z m 0,-12 a 5,5 0 1 1 -5,5 5,5 0 0 1 5,-5 z"
       id="path3729"
       style="fill:url(#linearGradient4604);fill-opacity:1"
       inkscape:connector-curvature="0" />
    <path
       d="M 0.34,17.33 A 2.5,2.5 0 0 0 2.76,19.18 2.53,2.53 0 0 0 3.4,19.1 L 4,18.94 V 40 a 2,2 0 0 0 2,2 h 6.42 l 1.8,3.12 a 3,3 0 0 0 -0.32,3.44 l 5.5,9.52 A 2.89,2.89 0 0 0 21,59.42 2.79,2.79 0 0 0 22.65,59.49 2,2 0 0 0 24,60 h 12 a 2,2 0 0 0 1.31,-0.5 3,3 0 0 0 0.68,0.09 2.85,2.85 0 0 0 0.94,-0.16 2.91,2.91 0 0 0 1.67,-1.34 l 5.5,-9.53 A 3,3 0 0 0 45.78,45.12 L 47.58,42 H 54 a 2,2 0 0 0 2,-2 V 18.94 l 0.6,0.16 a 2.51,2.51 0 0 0 3.06,-1.77 l 0.26,-1 v 0 A 2.52,2.52 0 0 0 58.15,13.27 L 35,7.08 a 2.51,2.51 0 0 0 -3.1,1.77 l -0.26,1 a 2.5,2.5 0 0 0 1.77,3.05 L 41.33,15 H 18.67 l 7.91,-2.12 a 2.5,2.5 0 0 0 1.77,-3.06 l -0.26,-1 A 2.5,2.5 0 0 0 25,7.08 L 1.84,13.3 A 2.52,2.52 0 0 0 0.08,16.36 Z M 6,19.68 V 18.4 L 7.44,18 7.34,18.11 C 7.2,18.25 7.06,18.39 6.93,18.54 L 6.6,18.9 C 6.47,19.05 6.35,19.21 6.23,19.37 6.11,19.53 6.07,19.58 6,19.68 Z M 45,17 a 9,9 0 0 1 0,18 9,9 0 0 1 -9,-9 9,9 0 0 1 9,-9 z m -1,27.13 a 2.86,2.86 0 0 0 -1.29,0 2.93,2.93 0 0 0 -1.84,1.39 L 37,52.29 A 2,2 0 0 0 36,52 h -2 v -2 a 3,3 0 0 0 -3,-3 v -7 h 7 a 2,2 0 0 0 2,-2 V 35.79 A 10.83,10.83 0 0 0 44,37 v 3 a 2,2 0 0 0 1.34,1.88 z M 28,52 v -2 a 1,1 0 0 1 1,-1 h 2 a 1,1 0 0 1 1,1 v 2 z m -4,0 a 2,2 0 0 0 -1,0.29 L 19.1,45.56 A 2.91,2.91 0 0 0 17.29,44.18 2.94,2.94 0 0 0 16,44.13 L 14.7,41.88 A 2,2 0 0 0 16,40 v -3 a 10.83,10.83 0 0 0 4,-1.16 V 38 a 2,2 0 0 0 2,2 h 7 v 7 a 3,3 0 0 0 -3,3 v 2 z M 22,38 v -2 h 16 v 2 z M 34.8,21.91 c -0.05,0.13 -0.1,0.26 -0.14,0.39 -0.04,0.13 -0.17,0.51 -0.25,0.77 -0.08,0.26 -0.08,0.28 -0.11,0.43 -0.03,0.15 -0.11,0.56 -0.16,0.84 0,0.13 0,0.26 -0.06,0.39 A 11,11 0 0 0 34,26 a 11.24,11.24 0 0 0 0.07,1.22 c 0,0.13 0,0.26 0.06,0.39 0.06,0.13 0.08,0.54 0.14,0.8 0.06,0.26 0.08,0.3 0.12,0.45 0.04,0.15 0.13,0.47 0.21,0.7 0.08,0.23 0.11,0.3 0.17,0.46 0.06,0.16 0.18,0.44 0.28,0.65 l 0.22,0.44 c 0.11,0.21 0.23,0.42 0.36,0.62 l 0.26,0.4 c 0.14,0.21 0.29,0.41 0.45,0.61 l 0.27,0.35 c 0.2,0.23 0.41,0.45 0.63,0.67 l 0.2,0.21 v 0 h -14.9 v 0 l 0.19,-0.19 c 0.22,-0.22 0.44,-0.45 0.64,-0.68 l 0.26,-0.34 c 0.16,-0.2 0.31,-0.41 0.46,-0.62 l 0.25,-0.4 c 0.13,-0.21 0.25,-0.41 0.36,-0.63 l 0.22,-0.43 c 0.1,-0.22 0.2,-0.44 0.28,-0.66 0.08,-0.22 0.12,-0.3 0.17,-0.45 0.05,-0.15 0.15,-0.47 0.21,-0.71 0.06,-0.24 0.08,-0.3 0.12,-0.45 0.04,-0.15 0.1,-0.53 0.14,-0.8 0.04,-0.27 0,-0.26 0.06,-0.39 A 11.24,11.24 0 0 0 26,26 11,11 0 0 0 25.92,24.74 c 0,-0.13 0,-0.26 -0.06,-0.39 0,-0.28 -0.09,-0.56 -0.16,-0.84 -0.07,-0.28 -0.07,-0.29 -0.11,-0.43 -0.04,-0.14 -0.16,-0.52 -0.25,-0.77 -0.09,-0.25 -0.09,-0.26 -0.14,-0.39 L 25.11,21.7 30,20.05 34.89,21.68 Z M 24,26 A 9.2,9.2 0 0 1 23.94,27.06 9,9 0 0 1 8.57,32.3 9,9 0 1 1 24,26 Z M 6,32.33 c 0.09,0.13 0.19,0.25 0.29,0.37 l 0.2,0.25 c 0.21,0.26 0.43,0.51 0.66,0.74 0.23,0.23 0.51,0.49 0.77,0.71 l 0.28,0.22 c 0.18,0.14 0.36,0.28 0.55,0.42 l 0.34,0.22 0.53,0.33 0.38,0.2 0.55,0.26 0.39,0.17 0.58,0.21 0.4,0.13 0.62,0.16 0.38,0.09 0.72,0.11 H 13.95 14 v 3 H 6 Z m 15.14,24.76 -5.5,-9.53 a 1,1 0 0 1 0.85,-1.49 1.13,1.13 0 0 1 0.3,0 0.92,0.92 0 0 1 0.58,0.45 l 4.59,8 V 57.6 A 1.08,1.08 0 0 1 21.63,57.54 0.93,0.93 0 0 1 21.14,57.09 Z M 24,58 v -4 h 12 v 4 z M 44.36,47.56 v 0 l -5.5,9.54 A 1,1 0 0 1 38.3,57.54 1,1 0 0 1 38,57.59 v -3 l 4.64,-8 a 1,1 0 0 1 0.61,-0.46 1,1 0 0 1 0.75,0.09 1,1 0 0 1 0.37,1.36 z M 54,32.33 V 40 h -8 v -3 h 0.06 0.31 l 0.72,-0.11 0.38,-0.09 0.62,-0.16 0.4,-0.13 0.58,-0.21 0.39,-0.17 0.55,-0.26 0.38,-0.2 0.53,-0.33 0.34,-0.22 c 0.19,-0.13 0.37,-0.27 0.55,-0.42 l 0.28,-0.22 c 0.27,-0.22 0.52,-0.46 0.77,-0.71 0.25,-0.25 0.46,-0.49 0.67,-0.75 l 0.19,-0.24 c 0.09,-0.2 0.19,-0.32 0.28,-0.45 z m 0,-12.65 c -0.07,-0.1 -0.16,-0.2 -0.24,-0.3 -0.08,-0.1 -0.24,-0.32 -0.37,-0.47 L 53.06,18.55 C 52.93,18.4 52.79,18.26 52.65,18.12 l -0.1,-0.1 1.45,0.38 z m -20.37,-9 A 0.5,0.5 0 0 1 33.58,10.3 l 0.26,-1 A 0.5,0.5 0 0 1 34.32,9 h 0.13 l 23.17,6.21 a 0.51,0.51 0 0 1 0.36,0.62 l -0.26,1 a 0.51,0.51 0 0 1 -0.61,0.35 l -1.83,-0.49 v 0 l -5,-1.33 -16.36,-4.42 a 0.48,0.48 0 0 1 -0.29,-0.22 z m 5.05,6.32 -0.22,0.17 c -0.22,0.17 -0.44,0.34 -0.65,0.52 L 37.5,18 q -0.29,0.27 -0.55,0.56 l -0.29,0.31 c -0.19,0.22 -0.37,0.45 -0.54,0.69 l -0.19,0.25 -0.07,0.1 -5.54,-1.85 a 1,1 0 0 0 -0.63,0 L 24.15,19.9 24.08,19.8 23.89,19.55 C 23.72,19.31 23.54,19.08 23.35,18.86 L 23.06,18.55 Q 22.79,18.26 22.51,17.99 L 22.19,17.7 C 21.98,17.52 21.76,17.35 21.54,17.18 L 21.32,17 Z M 2.37,15.23 25.54,9 h 0.13 a 0.5,0.5 0 0 1 0.49,0.37 l 0.26,1 a 0.5,0.5 0 0 1 -0.05,0.38 0.48,0.48 0 0 1 -0.29,0.23 v 0 l -16.49,4.39 -4.84,1.3 v 0 L 2.92,17.16 A 0.51,0.51 0 0 1 2.3,16.81 l -0.26,-1 a 0.5,0.5 0 0 1 0.33,-0.58 z"
       id="path3731"
       style="fill:url(#linearGradient4606);fill-opacity:1"
       inkscape:connector-curvature="0" />
    <path
       d="m 15,25 v 0 a 1,1 0 1 0 1,1 1,1 0 0 0 -1,-1 z"
       id="path3733"
       style="fill:url(#linearGradient4608);fill-opacity:1"
       inkscape:connector-curvature="0" />
    <path
       d="m 45,27 a 1,1 0 0 0 0,-2 v 0 a 1,1 0 0 0 0,2 z"
       id="path3735"
       style="fill:url(#linearGradient4610);fill-opacity:1"
       inkscape:connector-curvature="0" />
  </g>
</svg>
